<svg height="141" viewBox="0 0 528 141" width="528" xmlns="http://www.w3.org/2000/svg"><g fill="none" fill-rule="evenodd"><path d="m102.000334 132.739758-7.3906475-7.383705 29.1453775-28.9441223 28.906969 28.6487743-7.45025 7.383705-21.456719-21.324139z" fill="#375de7"/><g fill-rule="nonzero"><path d="m308.867381 25.0987669v12.31056h-15.079306v31.0585917c0 2.895412 2.338223 5.2451601 5.238794 5.2451601h9.840512v12.31056h-9.840512c-9.711132 0-17.648373-7.9044405-17.648373-17.5557201v-31.0585917h-9.059504v-12.31056h9.059504v-19.37484117h12.409579v19.37484117zm-123.615115 12.31056v31.0585917h-.661804.661804c0 2.895412 2.338223 5.2451601 5.238794 5.2451601h9.840512v12.31056h-9.840512c-9.731264 0-17.648373-7.8653925-17.648373-17.5557201v-31.0585917h-9.059504v-12.31056h9.059504v-19.37484117h12.409579v19.37484117h15.079306v12.31056zm-141.40777 48.8627288c-12.3757294 0-22.6138329-4.0502387-30.7143103-12.0382095-8.10047748-8.1004775-12.1507162-18.3385809-12.1507162-30.7143104 0-12.4882361 4.16274535-22.7263395 12.6007427-30.826817 8.4379973-8.21298405 18.6761008-12.26322278 30.826817-12.26322278 13.8383156 0 26.7765782 5.85034483 34.3145225 14.73836868l-8.8880238 8.7755173c-6.6378913-7.3129311-15.0758886-10.9131433-25.3139921-10.9131433-8.6630106 0-15.863435 2.9251724-21.6012732 8.6630106s-8.6630106 13.0507693-8.6630106 21.8262865c0 8.6630106 2.8126658 15.9759417 8.550504 21.7137798 5.7378382 5.7378382 12.8257559 8.550504 21.3762599 8.550504 9.5630637 0 19.0136207-4.1627453 25.3139921-10.8006366v-14.8508753h-26.2140451v-11.7006897h38.2522546v32.6269231c-10.3506101 11.4756764-22.9513528 17.2135146-37.6897215 17.2135146zm48.463886-31.5018568c0-8.8880238 3.037679-16.3134615 9.00053-22.5013262 6.075359-6.1878647 13.725809-9.3380504 23.06386-9.3380504 9.33805 0 16.988501 3.1501857 22.951353 9.3380504 6.075358 6.1878647 9.113037 13.6133024 9.113037 22.5013262 0 9.0005305-3.037679 16.5384748-9.113037 22.7263396-5.962852 6.1878647-13.613303 9.2255437-22.951353 9.2255437-9.338051 0-16.988501-3.037679-23.06386-9.2255437-5.962851-6.1878648-9.00053-13.7258091-9.00053-22.7263396zm50.991976-.1125066c0-5.5128249-1.912613-10.3506101-5.737838-14.2883422-3.712719-4.0502387-8.325491-6.0753581-13.838316-6.0753581s-10.125597 2.0251194-13.950822 6.0753581c-3.712719 3.9377321-5.625332 8.7755173-5.625332 14.2883422 0 5.6253316 1.912613 10.4631167 5.625332 14.4008488 3.825225 3.9377321 8.437997 5.9628515 13.950822 5.9628515s10.125597-2.0251194 13.838316-5.9628515c3.825225-3.9377321 5.737838-8.7755172 5.737838-14.4008488zm103.870093 31.6209814v-85.84917768h12.938263v85.84917768z" fill="#000"/><path d="m186.819336 122.279297c-.300783 3.185563-1.476552 5.670401-3.527344 7.45459-2.050791 1.784188-4.778303 2.676269-8.182617 2.676269-2.378918 0-4.474112-.563959-6.285645-1.691894-1.811532-1.127936-3.209467-2.730947-4.193847-4.809082-.98438-2.078136-1.49707-4.491198-1.538086-7.239258v-2.789063c0-2.81642.499018-5.29784 1.49707-7.444336.998052-2.146495 2.430167-3.800775 4.296387-4.96289s4.022937-1.743164 6.470215-1.743164c3.294938 0 5.947255.895499 7.957031 2.686523 2.009776 1.791025 3.178709 4.320296 3.506836 7.587891h-5.167969c-.246095-2.146495-.871577-3.69482-1.876465-4.64502-1.004887-.9502-2.478017-1.425293-4.419433-1.425293-2.255871 0-3.988764.823723-5.198731 2.471192s-1.828613 4.063949-1.855957 7.249511v2.645508c0 3.226579.577631 5.687492 1.73291 7.382813 1.15528 1.695321 2.847157 2.542968 5.075684 2.542968 2.03712 0 3.568354-.458003 4.59375-1.374023s1.674803-2.440419 1.948242-4.573242zm9.264453-10.048828c1.626961-1.886728 3.684558-2.830078 6.172852-2.830078 4.730492 0 7.129882 2.700168 7.198242 8.100586v14.499023h-4.983399v-14.314453c0-1.531258-.331539-2.614743-.994629-3.250488-.663089-.635746-1.6372-.953614-2.922363-.953614-1.996104 0-3.486323.888663-4.470703 2.666016v15.852539h-4.983398v-31.5h4.983398zm31.864063 19.769531c-.218752-.42383-.410156-1.114253-.574219-2.071289-1.585946 1.654305-3.527332 2.481445-5.824219 2.481445-2.228527 0-4.046868-.635736-5.455078-1.907226-1.40821-1.271491-2.112305-2.843741-2.112305-4.716797 0-2.365246.878409-4.18017 2.635254-5.444824 1.756845-1.264655 4.269027-1.896973 7.536621-1.896973h3.055664v-1.456055c0-1.148443-.321286-2.067867-.963867-2.758301-.642581-.690433-1.62011-1.035644-2.932617-1.035644-1.134771 0-2.06445.283689-2.789063.851074-.724613.567386-1.086914 1.28857-1.086914 2.163574h-4.983398c0-1.216803.403316-2.354975 1.209961-3.41455.806645-1.059576 1.903802-1.890134 3.291504-2.4917 1.387702-.601565 2.936026-.902343 4.645019-.902343 2.59767 0 4.668938.652825 6.213868 1.958496 1.544929 1.30567 2.33789 3.141101 2.378906 5.506347v10.007813c0 1.996104.28027 3.588861.84082 4.77832v.348633zm-5.475586-3.588867c.98438 0 1.91064-.239256 2.778808-.717774.868169-.478518 1.520994-1.121089 1.958496-1.927734v-4.183594h-2.686523c-1.845712 0-3.233394.321286-4.163086.963867-.929692.642582-1.394531 1.551752-1.394531 2.72754 0 .957036.317868 1.719235.953613 2.286621.635745.567385 1.486811.851074 2.553223.851074zm21.38457-23.994141v5.393555h3.916992v3.691406h-3.916992v12.386719c0 .84766.167479 1.459471.502441 1.835449.334963.375979.933102.563965 1.794434.563965.574222 0 1.15527-.068359 1.743164-.205078v3.855469c-1.134771.314454-2.22851.471679-3.28125.471679-3.828144 0-5.742187-2.112283-5.742187-6.336914v-12.571289h-3.650391v-3.691406h3.650391v-5.393555zm38.072852 20.712891 3.527343-15.319336h4.860352l-6.049805 22.189453h-4.101562l-4.757813-15.237305-4.675781 15.237305h-4.101563l-6.070312-22.189453h4.860351l3.588868 15.155273 4.552734-15.155273h3.75293zm17.221484 6.870117h-4.983399v-22.189453h4.983399zm-5.291016-27.952148c0-.765629.242674-1.401365.728028-1.907227s1.179194-.758789 2.081543-.758789c.902348 0 1.599606.252927 2.091796.758789s.738282 1.141598.738282 1.907227c0 .751956-.246092 1.377438-.738282 1.876464s-1.189448.748536-2.091796.748536c-.902349 0-1.596189-.24951-2.081543-.748536s-.728028-1.124508-.728028-1.876464zm17.159961.36914v5.393555h3.916992v3.691406h-3.916992v12.386719c0 .84766.167479 1.459471.502442 1.835449.334962.375979.933101.563965 1.794433.563965.574222 0 1.155271-.068359 1.743164-.205078v3.855469c-1.134771.314454-2.22851.471679-3.28125.471679-3.828144 0-5.742187-2.112283-5.742187-6.336914v-12.571289h-3.650391v-3.691406h3.650391v-5.393555zm12.832813 7.813477c1.626961-1.886728 3.684558-2.830078 6.172851-2.830078 4.730493 0 7.129883 2.700168 7.198242 8.100586v14.499023h-4.983398v-14.314453c0-1.531258-.33154-2.614743-.994629-3.250488-.663089-.635746-1.6372-.953614-2.922363-.953614-1.996104 0-3.486323.888663-4.470703 2.666016v15.852539h-4.983399v-31.5h4.983399zm37.026953 12.632812 4.511719-15.052734h5.311523l-8.818359 25.552734c-1.353523 3.732441-3.650375 5.598633-6.890625 5.598633-.724613 0-1.52441-.123046-2.399414-.369141v-3.855468l.943359.061523c1.257819 0 2.204587-.229001 2.840332-.687012.635745-.45801 1.138182-1.227045 1.507324-2.307128l.717774-1.907227-7.792969-22.086914h5.373047zm11.643359-4.163086c0-2.173839.43066-4.132315 1.291992-5.875488.861333-1.743173 2.071282-3.083003 3.629883-4.019531 1.558602-.936528 3.349599-1.404785 5.373047-1.404785 2.994156 0 5.424307.963857 7.290527 2.891601 1.866221 1.927744 2.874511 4.484359 3.024903 7.669922l.020508 1.168945c0 2.187511-.420406 4.14257-1.261231 5.865235-.840824 1.722665-2.043937 3.055659-3.609375 3.999023-1.565437.943364-3.373525 1.415039-5.424316 1.415039-3.130875 0-5.636221-1.04247-7.516114-3.127441-1.879892-2.084972-2.819824-4.863752-2.819824-8.336426zm4.983399.430664c0 2.283215.471675 4.070795 1.415039 5.362793.943364 1.291999 2.255851 1.937989 3.9375 1.937989s2.990718-.656244 3.927246-1.96875c.936528-1.312507 1.404785-3.233386 1.404785-5.762696 0-2.242198-.481929-4.019524-1.445801-5.332031s-2.272941-1.96875-3.927246-1.96875c-1.626961 0-2.91894.64599-3.875976 1.937988-.957037 1.291999-1.435547 3.223132-1.435547 5.793457zm33.504687 8.695313c-1.462898 1.722665-3.541002 2.583984-6.234375 2.583984-2.406262 0-4.228021-.704094-5.465332-2.112304-1.237311-1.408211-1.855957-3.4453-1.855957-6.111329v-14.375976h4.983399v14.314453c0 2.81642 1.168933 4.224609 3.506835 4.224609 2.419934 0 4.053707-.868155 4.901368-2.604492v-15.93457h4.983398v22.189453h-4.696289zm70.235786-20.530388c2.610557 0 4.692102.656065 6.244697 1.968213 1.552594 1.312149 2.349489 3.156686 2.390709 5.533667v10.057466c0 2.006007.281661 3.606667.844992 4.802028v.350362h-5.111171c-.219837-.425933-.412191-1.119781-.577068-2.081565-1.593814 1.662512-3.544833 2.493756-5.853115 2.493756-2.239584 0-4.066947-.63889-5.482143-1.916689-1.415197-1.277799-2.122785-2.857849-2.122785-4.740199 0-2.376981.882767-4.200909 2.648328-5.471838 1.765562-1.270929 4.290207-1.906384 7.574014-1.906384h3.070824v-1.463279c0-1.154141-.32288-2.078127-.968649-2.771986s-1.628149-1.040783-2.947167-1.040783c-1.140402 0-2.074692.285096-2.8029.855297s-1.092307 1.294963-1.092307 2.174309h-5.008123c0-1.22284.405317-2.36666 1.215964-3.431492.810647-1.064833 1.913247-1.899512 3.307834-2.504062s2.950594-.906821 4.668066-.906821zm20.357142-5.008123v5.420315h3.936426v3.709721h-3.936426v12.448174c0 .851866.16831 1.466712.504934 1.844556.336625.377844.937731.566763 1.803337.566763.577071 0 1.161002-.068698 1.751813-.206096v3.874598c-1.140402.316014-2.239567.474019-3.29753.474019-3.847137 0-5.770677-2.122763-5.770677-6.368354v-12.63366h-3.668502v-3.709721h3.668502v-5.420315zm16.915346 5.008123c2.610558 0 4.692102.656065 6.244697 1.968213 1.552595 1.312149 2.34949 3.156686 2.390709 5.533667v10.057466c0 2.006007.281661 3.606667.844992 4.802028v.350362h-5.111171c-.219836-.425933-.41219-1.119781-.577068-2.081565-1.593814 1.662512-3.544833 2.493756-5.853115 2.493756-2.239583 0-4.066946-.63889-5.482143-1.916689s-2.122785-2.857849-2.122785-4.740199c0-2.376981.882768-4.200909 2.648329-5.471838s4.290207-1.906384 7.574013-1.906384h3.070825v-1.463279c0-1.154141-.32288-2.078127-.96865-2.771986-.645769-.693859-1.628148-1.040783-2.947167-1.040783-1.140401 0-2.074692.285096-2.8029.855297s-1.092307 1.294963-1.092307 2.174309h-5.008123c0-1.22284.405317-2.36666 1.215964-3.431492.810647-1.064833 1.913247-1.899512 3.307835-2.504062 1.394587-.60455 2.950593-.906821 4.668065-.906821zm-64.657491-7.295784c2.651777 0 5.004678.590801 7.058775 1.772422 2.054096 1.181621 3.644451 2.857848 4.771113 5.028733 1.126661 2.170885 1.689984 4.657747 1.689984 7.460661v1.504498c0 2.844133-.566757 5.344735-1.700289 7.50188-1.133531 2.157145-2.747931 3.819633-4.843247 4.987514-2.095316 1.16788-4.496305 1.751812-7.203041 1.751812h-8.635406v-30.00752zm-22.881252 7.400391c.710941 0 1.298826.095702 1.763672.287109l-.020508 4.675781c-.656253-.109375-1.333004-.164062-2.030273-.164062-2.283215 0-3.821285.874991-4.614258 2.625v15.175781h-4.983398v-22.189453h4.757812l.123047 2.481445c1.203131-1.927744 2.871083-2.891601 5.003906-2.891601zm53.893537 12.137472h-2.699852c-1.85487 0-3.249436.32288-4.183741.96865-.934305.645769-1.40145 1.559451-1.40145 2.741071 0 .961785.319445 1.727766.958345 2.297966.638899.570201 1.494187.855297 2.56589.855297.989264 0 1.92012-.240442 2.792595-.721335.872476-.480892 1.528541-1.126651 1.968213-1.937298zm37.272489 0h-2.699853c-1.854869 0-3.249436.32288-4.18374.96865-.934305.645769-1.401451 1.559451-1.401451 2.741071 0 .961785.319445 1.727766.958345 2.297966.6389.570201 1.494188.855297 2.56589.855297.989264 0 1.92012-.240442 2.792596-.721335.872476-.480892 1.52854-1.126651 1.968213-1.937298zm-68.284774-15.333513h-3.647892v21.640039h3.400577c2.734216 0 4.832935-.855288 6.296221-2.56589s2.208658-4.16655 2.236137-7.367918v-1.669375c0-3.256326-.707587-5.743189-2.122784-7.460661s-3.469263-2.576195-6.162259-2.576195z" fill="#375de7"/></g></g></svg>